<mxfile host="www.draw.io" modified="2019-10-22T12:09:08.824Z" agent="Mozilla/5.0 (Windows NT 10.0; Win64; x64) AppleWebKit/537.36 (KHTML, like Gecko) Chrome/77.0.3865.120 Safari/537.36" etag="U7y8hamEAZJdM8wYXd2s" version="12.1.3" type="github" pages="1">
  <diagram id="ukyrpoBNMOFhuvqvsoTN" name="Page-1">
    <mxGraphModel dx="1024" dy="517" grid="1" gridSize="15" guides="1" tooltips="1" connect="1" arrows="1" fold="1" page="1" pageScale="1" pageWidth="850" pageHeight="1100" math="0" shadow="0">
      <root>
        <mxCell id="0"/>
        <mxCell id="1" parent="0"/>
        <mxCell id="XI8iSRIh_-YnKE7SXtKw-13" style="edgeStyle=orthogonalEdgeStyle;curved=1;rounded=0;orthogonalLoop=1;jettySize=auto;html=1;exitX=1;exitY=0.5;exitDx=0;exitDy=0;entryX=0;entryY=0.5;entryDx=0;entryDy=0;" parent="1" source="XI8iSRIh_-YnKE7SXtKw-1" target="XI8iSRIh_-YnKE7SXtKw-2" edge="1">
          <mxGeometry relative="1" as="geometry"/>
        </mxCell>
        <mxCell id="XI8iSRIh_-YnKE7SXtKw-1" value="Film industry" style="ellipse;whiteSpace=wrap;html=1;fillColor=#dae8fc;strokeColor=#6c8ebf;" parent="1" vertex="1">
          <mxGeometry x="20" y="20" width="120" height="80" as="geometry"/>
        </mxCell>
        <mxCell id="XI8iSRIh_-YnKE7SXtKw-23" style="edgeStyle=orthogonalEdgeStyle;curved=1;rounded=0;orthogonalLoop=1;jettySize=auto;html=1;exitX=1;exitY=0.25;exitDx=0;exitDy=0;entryX=0;entryY=0.25;entryDx=0;entryDy=0;" parent="1" source="XI8iSRIh_-YnKE7SXtKw-2" target="XI8iSRIh_-YnKE7SXtKw-5" edge="1">
          <mxGeometry relative="1" as="geometry"/>
        </mxCell>
        <mxCell id="XI8iSRIh_-YnKE7SXtKw-25" style="edgeStyle=orthogonalEdgeStyle;curved=1;rounded=0;orthogonalLoop=1;jettySize=auto;html=1;exitX=0.5;exitY=1;exitDx=0;exitDy=0;entryX=0.5;entryY=0;entryDx=0;entryDy=0;" parent="1" source="XI8iSRIh_-YnKE7SXtKw-2" target="XI8iSRIh_-YnKE7SXtKw-4" edge="1">
          <mxGeometry relative="1" as="geometry"/>
        </mxCell>
        <mxCell id="XI8iSRIh_-YnKE7SXtKw-2" value="Good Processing and Recording&lt;br&gt;require" style="whiteSpace=wrap;html=1;aspect=fixed;fillColor=#d5e8d4;strokeColor=#82b366;" parent="1" vertex="1">
          <mxGeometry x="300" y="40" width="80" height="80" as="geometry"/>
        </mxCell>
        <mxCell id="XI8iSRIh_-YnKE7SXtKw-18" style="edgeStyle=orthogonalEdgeStyle;curved=1;rounded=0;orthogonalLoop=1;jettySize=auto;html=1;exitX=1;exitY=1;exitDx=0;exitDy=0;" parent="1" source="XI8iSRIh_-YnKE7SXtKw-4" target="XI8iSRIh_-YnKE7SXtKw-6" edge="1">
          <mxGeometry relative="1" as="geometry"/>
        </mxCell>
        <mxCell id="XI8iSRIh_-YnKE7SXtKw-4" value="Good audio and visual quality" style="ellipse;whiteSpace=wrap;html=1;aspect=fixed;fillColor=#ffe6cc;strokeColor=#d79b00;" parent="1" vertex="1">
          <mxGeometry x="400" y="160" width="80" height="80" as="geometry"/>
        </mxCell>
        <mxCell id="XI8iSRIh_-YnKE7SXtKw-24" style="edgeStyle=orthogonalEdgeStyle;curved=1;rounded=0;orthogonalLoop=1;jettySize=auto;html=1;exitX=0;exitY=0.75;exitDx=0;exitDy=0;entryX=1;entryY=0.75;entryDx=0;entryDy=0;" parent="1" source="XI8iSRIh_-YnKE7SXtKw-5" target="XI8iSRIh_-YnKE7SXtKw-2" edge="1">
          <mxGeometry relative="1" as="geometry"/>
        </mxCell>
        <mxCell id="XI8iSRIh_-YnKE7SXtKw-5" value="Demand of new and effective technology" style="whiteSpace=wrap;html=1;aspect=fixed;fillColor=#60a917;strokeColor=#2D7600;fontColor=#ffffff;" parent="1" vertex="1">
          <mxGeometry x="520" y="40" width="80" height="80" as="geometry"/>
        </mxCell>
        <mxCell id="XI8iSRIh_-YnKE7SXtKw-19" style="edgeStyle=orthogonalEdgeStyle;curved=1;rounded=0;orthogonalLoop=1;jettySize=auto;html=1;exitX=0.5;exitY=1;exitDx=0;exitDy=0;entryX=1;entryY=0.5;entryDx=0;entryDy=0;" parent="1" source="XI8iSRIh_-YnKE7SXtKw-6" target="XI8iSRIh_-YnKE7SXtKw-7" edge="1">
          <mxGeometry relative="1" as="geometry"/>
        </mxCell>
        <mxCell id="XI8iSRIh_-YnKE7SXtKw-6" value="Audience engagement" style="rounded=0;whiteSpace=wrap;html=1;fillColor=#fff2cc;strokeColor=#d6b656;" parent="1" vertex="1">
          <mxGeometry x="350" y="290" width="120" height="60" as="geometry"/>
        </mxCell>
        <mxCell id="XI8iSRIh_-YnKE7SXtKw-20" style="edgeStyle=orthogonalEdgeStyle;curved=1;rounded=0;orthogonalLoop=1;jettySize=auto;html=1;exitX=0;exitY=0.5;exitDx=0;exitDy=0;entryX=0.5;entryY=1;entryDx=0;entryDy=0;" parent="1" source="XI8iSRIh_-YnKE7SXtKw-7" target="XI8iSRIh_-YnKE7SXtKw-9" edge="1">
          <mxGeometry relative="1" as="geometry"/>
        </mxCell>
        <mxCell id="XI8iSRIh_-YnKE7SXtKw-7" value="Audience strength" style="ellipse;whiteSpace=wrap;html=1;fillColor=#f8cecc;strokeColor=#b85450;" parent="1" vertex="1">
          <mxGeometry x="190" y="360" width="120" height="80" as="geometry"/>
        </mxCell>
        <mxCell id="XI8iSRIh_-YnKE7SXtKw-22" value="" style="edgeStyle=orthogonalEdgeStyle;curved=1;rounded=0;orthogonalLoop=1;jettySize=auto;html=1;entryX=1;entryY=0.5;entryDx=0;entryDy=0;" parent="1" source="XI8iSRIh_-YnKE7SXtKw-8" target="XI8iSRIh_-YnKE7SXtKw-6" edge="1">
          <mxGeometry relative="1" as="geometry"/>
        </mxCell>
        <mxCell id="XI8iSRIh_-YnKE7SXtKw-8" value="Content of movies" style="ellipse;whiteSpace=wrap;html=1;aspect=fixed;fillColor=#aa00ff;strokeColor=#7700CC;fontColor=#ffffff;" parent="1" vertex="1">
          <mxGeometry x="560" y="180" width="80" height="80" as="geometry"/>
        </mxCell>
        <mxCell id="XI8iSRIh_-YnKE7SXtKw-21" style="edgeStyle=orthogonalEdgeStyle;curved=1;rounded=0;orthogonalLoop=1;jettySize=auto;html=1;exitX=0.5;exitY=0;exitDx=0;exitDy=0;entryX=0.5;entryY=1;entryDx=0;entryDy=0;" parent="1" source="XI8iSRIh_-YnKE7SXtKw-9" target="XI8iSRIh_-YnKE7SXtKw-1" edge="1">
          <mxGeometry relative="1" as="geometry"/>
        </mxCell>
        <mxCell id="XI8iSRIh_-YnKE7SXtKw-9" value="Benefit for film industries" style="whiteSpace=wrap;html=1;aspect=fixed;fillColor=#e1d5e7;strokeColor=#9673a6;" parent="1" vertex="1">
          <mxGeometry x="40" y="200" width="80" height="80" as="geometry"/>
        </mxCell>
        <mxCell id="pTqpocNZGCvLsBxcRArl-1" value="Text" style="text;html=1;strokeColor=none;fillColor=none;align=center;verticalAlign=middle;whiteSpace=wrap;rounded=0;" vertex="1" parent="1">
          <mxGeometry x="15" y="465" width="40" height="20" as="geometry"/>
        </mxCell>
        <mxCell id="pTqpocNZGCvLsBxcRArl-2" value="&lt;b&gt;&lt;font style=&quot;font-size: 18px&quot;&gt;+&lt;/font&gt;&lt;/b&gt;" style="text;html=1;resizable=0;points=[];autosize=1;align=left;verticalAlign=top;spacingTop=-4;" vertex="1" parent="1">
          <mxGeometry x="277" y="93" width="30" height="15" as="geometry"/>
        </mxCell>
        <mxCell id="pTqpocNZGCvLsBxcRArl-3" value="Text" style="text;html=1;strokeColor=none;fillColor=none;align=center;verticalAlign=middle;whiteSpace=wrap;rounded=0;" vertex="1" parent="1">
          <mxGeometry x="15" y="510" width="40" height="20" as="geometry"/>
        </mxCell>
      </root>
    </mxGraphModel>
  </diagram>
</mxfile>
